# xmcd
#
# Track frame offsets: 
#        150
#        15835
#        31977
#        46519
#        65141
#        82276
#        98470
#        116166
#        134265
#        153994
#        180370
#        199715
#        232030
#        248094
#        265185
#        281802
#        297150
#        312004
#
# Disc length: 4478 seconds
#
# Revision: 3
# Processed by: cddbd v1.5.2PL0 Copyright (c) Steve Scherf et al.
# Submitted via: ExactAudioCopy v0.99pb5
#
DISCID=f0117c12
DTITLE=Various Artist - Modern Country Music - CD 2
DYEAR=2013
DGENRE=Country
TTITLE0=Kacey Musgraves - Merry go 'round
TTITLE1=Ryan Adams - Desire
TTITLE2=Band Perry - Better dig two
TTITLE3=Sugarland - Stuck like glue
TTITLE4=Billy Currington - Let me down easy
TTITLE5=Kip Moore - Somethin' 'bout a truck
TTITLE6=Whiskeytown - Don't wanna know why
TTITLE7=Shovels and Rope - Birmingham
TTITLE8=Broken Circle Breakdown Bluegrass Band - The boy who wouldn't 
TTITLE8=hoe corn
TTITLE9=Mary Gauthier - Mercy now
TTITLE10=Ryan Bingham and The Dead Horses - The weary kind (Theme from C
TTITLE10=razy Heart)
TTITLE11=Robert Earl Keen - The road goes on forever
TTITLE12=Shelby Lynne - Anyone who had a heart
TTITLE13=Eric Heatherly - Old enough to be her daddy
TTITLE14=Tift Merrit - Good hearted man
TTITLE15=Billy Bob Thornton - Angelina
TTITLE16=Nitty Gritty Dirt Band - Nashville blues
TTITLE17=Lucinda Williams - Are you alright?
EXTD=
EXTT0=
EXTT1=
EXTT2=
EXTT3=
EXTT4=
EXTT5=
EXTT6=
EXTT7=
EXTT8=
EXTT9=
EXTT10=
EXTT11=
EXTT12=
EXTT13=
EXTT14=
EXTT15=
EXTT16=
EXTT17=
PLAYORDER=
